<svg width="232" height="181" viewBox="0 0 232 181" fill="none" xmlns="http://www.w3.org/2000/svg">
<path fill-rule="evenodd" clip-rule="evenodd" d="M142.229 161.672C145.583 159.927 149.496 147.5 149.776 143.794C151.732 144.739 155.394 146.541 154.388 146.192C153.13 145.756 148.308 159.273 147.679 164.07C147.534 165.175 147.915 166.426 148.397 168.007C148.919 169.718 149.558 171.815 149.776 174.535C149.938 176.558 149.285 176.267 147.794 175.603C146.924 175.216 145.77 174.701 144.325 174.445C144.996 173.152 143.766 170.187 143.067 168.866C141.055 168.692 140.132 172.619 139.923 174.605C138.253 175.013 136.367 175.854 134.262 177.369C134.979 173.061 135.06 170.611 134.621 169.084C137.256 168.038 137.716 166.323 137.617 165.596C136.443 164.026 133.76 165.669 132.566 166.686C132.14 166.462 131.662 166.258 131.136 166.033C130.441 165.736 129.662 165.403 128.812 164.942C130.487 162.503 136.358 162.106 140.004 161.859C140.92 161.797 141.695 161.745 142.229 161.672Z" fill="#59563A"/>
<path d="M137.617 165.596C136.443 164.026 133.76 165.669 132.566 166.686C133.556 167.208 134.262 167.838 134.621 169.084C137.256 168.038 137.716 166.323 137.617 165.596Z" fill="#48452F"/>
<path d="M143.067 168.866C141.055 168.692 140.132 172.619 139.923 174.605C141.609 174.193 143.076 174.223 144.325 174.445C144.996 173.152 143.766 170.187 143.067 168.866Z" fill="#48452F"/>
<path d="M139.923 174.605C138.253 175.013 136.367 175.854 134.262 177.369C134.979 173.061 135.06 170.611 134.621 169.084M139.923 174.605C140.132 172.619 141.055 168.692 143.067 168.866C143.766 170.187 144.996 173.152 144.325 174.445M139.923 174.605C141.609 174.193 143.076 174.223 144.325 174.445M144.325 174.445C145.77 174.701 146.924 175.216 147.794 175.603C149.285 176.267 149.938 176.558 149.776 174.535C149.558 171.815 148.919 169.718 148.397 168.007C147.915 166.426 147.534 165.175 147.679 164.07C148.308 159.273 153.13 145.756 154.388 146.192C155.394 146.541 151.732 144.739 149.776 143.794C149.496 147.5 145.583 159.927 142.229 161.672C141.695 161.745 140.92 161.797 140.004 161.859C136.358 162.106 130.487 162.503 128.812 164.942C129.662 165.403 130.441 165.736 131.136 166.033C131.662 166.258 132.14 166.462 132.566 166.686M132.566 166.686C133.76 165.669 136.443 164.026 137.617 165.596C137.716 166.323 137.256 168.038 134.621 169.084M132.566 166.686C133.556 167.208 134.262 167.838 134.621 169.084" stroke="#59563A"/>
<path fill-rule="evenodd" clip-rule="evenodd" d="M177.793 160.086C178.591 156.275 173.59 150.22 170.989 147.669C172.924 146.677 176.571 144.841 175.678 145.438C174.563 146.183 179.811 153.658 183.008 157.175C183.911 158.168 185.045 158.673 186.927 159.51C188.245 160.096 189.931 160.846 192.161 162.041C194.256 163.164 193.749 163.418 192.243 164.171C191.518 164.534 190.56 165.013 189.55 165.761C187.223 163.552 184.988 163.856 184.156 164.288C183.036 166.119 185.007 168.36 186.283 169.382C185.199 171.193 184.319 173.624 183.946 176.934C181.604 173.834 180.03 172.123 178.779 171.304C179.995 168.286 178.689 166.825 177.867 166.469C175.956 166.634 175.531 169.434 175.553 171.022C175.101 171.223 174.627 171.497 174.095 171.804C173.446 172.179 172.712 172.603 171.827 173.005C171.051 170.118 174.436 165.113 176.538 162.006C177.066 161.225 177.514 160.564 177.793 160.086Z" fill="#59563A"/>
<path d="M175.553 171.022C176.602 170.557 177.529 170.485 178.779 171.304C179.995 168.286 178.689 166.825 177.867 166.469C175.956 166.634 175.531 169.434 175.553 171.022Z" fill="#48452F"/>
<path d="M186.283 169.382C187.278 167.719 188.446 166.579 189.55 165.761C187.223 163.552 184.988 163.856 184.156 164.288C183.036 166.119 185.007 168.36 186.283 169.382Z" fill="#48452F"/>
<path d="M175.56 171.265C175.557 171.188 175.554 171.107 175.553 171.022M178.705 171.483C178.731 171.423 178.756 171.363 178.779 171.304M186.462 169.521C186.404 169.478 186.344 169.431 186.283 169.382M189.606 165.815C189.588 165.797 189.569 165.779 189.55 165.761M189.55 165.761C188.446 166.579 187.278 167.719 186.283 169.382M189.55 165.761C190.56 165.013 191.518 164.534 192.243 164.171C193.749 163.418 194.256 163.164 192.161 162.041C189.931 160.846 188.245 160.096 186.927 159.51C185.045 158.673 183.911 158.168 183.008 157.175C179.811 153.658 174.563 146.183 175.678 145.438C176.571 144.841 172.924 146.677 170.989 147.669C173.59 150.22 178.591 156.275 177.793 160.086C177.514 160.564 177.066 161.225 176.538 162.006C174.436 165.113 171.051 170.118 171.827 173.005C172.712 172.603 173.446 172.179 174.095 171.804C174.627 171.497 175.101 171.223 175.553 171.022M189.55 165.761C187.223 163.552 184.988 163.856 184.156 164.288C183.036 166.119 185.007 168.36 186.283 169.382M186.283 169.382C185.199 171.193 184.319 173.624 183.946 176.934C181.604 173.834 180.03 172.123 178.779 171.304M178.779 171.304C177.529 170.485 176.602 170.557 175.553 171.022M178.779 171.304C179.995 168.286 178.689 166.825 177.867 166.469C175.956 166.634 175.531 169.434 175.553 171.022" stroke="#59563A"/>
<path d="M104.913 28.4616C119.963 10.4627 160.049 24.9733 141.81 63.7809C140.325 66.9393 149.986 78.8243 153.969 78.1702C169.504 75.6193 182.271 86.891 194.011 87.5451C203.445 87.5451 208.686 81.4405 221.474 81.4405C234.262 81.4405 231.327 88.6352 221.474 95.8298C231.034 102.981 218.888 111.382 213.927 113.489C220.3 121.338 216.233 129.829 208.057 130.713C180.803 156.876 140.449 153.605 131.328 120.684C111.537 133.94 79.3364 127.443 87.0932 111.091C71.7893 112.399 59.63 98.4461 75.5628 89.9433C60.2589 83.1847 71.1603 71.0645 81.6425 74.0279C103.236 80.1324 97.156 87.3271 129.86 87.3271C129.86 75.554 129.301 73.3872 118.959 71.4116C88.1415 65.525 96.5271 38.4905 104.913 28.4616Z" fill="url(#paint0_linear_3974_524)"/>
<path d="M129.86 87.3271C129.86 75.554 129.301 73.3872 118.959 71.4116C88.1415 65.525 96.5271 38.4905 104.913 28.4616C119.963 10.4627 160.049 24.9733 141.81 63.7809C140.325 66.9393 149.986 78.8243 153.969 78.1702C169.504 75.6193 182.271 86.891 194.011 87.5451C203.445 87.5451 208.686 81.4405 221.474 81.4405C234.262 81.4405 231.327 88.6352 221.474 95.8298C231.034 102.981 218.888 111.382 213.927 113.489C220.3 121.338 216.233 129.829 208.057 130.713M129.86 87.3271C97.156 87.3271 103.236 80.1324 81.6425 74.0279C71.1603 71.0645 60.2589 83.1847 75.5628 89.9433C59.63 98.4461 71.7893 112.399 87.0932 111.091C79.3364 127.443 111.537 133.94 131.328 120.684M129.86 87.3271C128.882 92.923 128.476 110.394 131.328 120.684M131.328 120.684C140.449 153.605 180.803 156.876 208.057 130.713M208.057 130.713C183.319 133.389 167.093 123.911 160.049 101.934" stroke="#746049" stroke-width="3"/>
<path d="M183.739 91.6875C185.626 93.141 187.68 97.5741 179.965 99.3182C182.271 103.606 184.2 111.615 172.628 108.475M201.558 93.4317C203.795 94.3764 206.758 98.4461 198.204 101.062C201.139 103.751 204.41 108.998 194.011 108.475C197.296 111.164 198.414 119.202 184.997 118.504M97.9952 91.6875C92.9638 91.6875 90.7835 93.3009 97.9952 96.2659C96.8072 98.0828 95.9407 102.632 101.978 101.934C101.349 104.987 99.0853 109.87 108.477 111.091M114.138 96.2659C112.81 97.138 109.609 98.4461 114.138 101.934C111.832 106.513 113.676 107.952 117.702 108.475" stroke="#746049" stroke-width="2"/>
<path d="M84.0687 58.1127C84.9964 56.8263 91.5458 49.4646 97.4857 44.8135C100.169 49.6971 105.033 49.9006 107.129 49.3919C106.081 54.4064 107.059 57.5313 108.387 60.2929C102.517 66.0487 91.1266 69.3771 85.7458 70.7579C75.054 73.5016 82.8108 59.8569 84.0687 58.1127Z" fill="#BAB162" stroke="#BAB162" stroke-width="3"/>
<g filter="url(#filter0_f_3974_524)">
<ellipse cx="133.422" cy="50.046" rx="4.19285" ry="4.36041" fill="#FDD2DC" fill-opacity="0.47"/>
</g>
<ellipse cx="117.909" cy="40.4527" rx="4.19285" ry="4.36041" fill="#564531"/>
<rect width="4.63283" height="122.065" rx="2.31641" transform="matrix(0.908558 -0.423212 0.394712 0.916454 45.3857 16.1992)" fill="#746049"/>
<path d="M49.7969 14.4606L66.6162 53.7656C56.9312 58.4353 55.8357 55.6803 50.7605 57.7248C39.9926 62.0624 44.371 63.9096 34.4375 70.489C26.292 75.8841 9.062 68.8605 4.49391 68.7963C29.651 46.9943 24.6196 47.8663 32.7956 30.8607C40.1922 15.4764 47.627 14.5267 49.7969 14.4606Z" fill="#74B5C4"/>
<path fill-rule="evenodd" clip-rule="evenodd" d="M120.457 111.259C118.071 114.625 114.477 124.756 119.194 138.344C123.405 139.415 135.198 140.915 148.674 138.344C153.556 132.358 151.899 120.901 150.083 114.472C149.893 113.801 149.702 113.185 149.516 112.636C148.81 112.34 147.436 111.727 146.739 111.475C139.126 108.719 132.791 108.84 127.617 109.485C127.57 109.491 127.521 109.498 127.471 109.505C126.361 109.666 124.385 110.18 122.758 110.624C121.775 110.892 120.919 111.135 120.457 111.259Z" fill="#EEF4AB" stroke="#DBE19C" stroke-width="2"/>
<path d="M120.635 111.745C126.575 110.873 141.055 111.44 143.906 114.58M143.906 114.58L149.356 112.617M143.906 114.58C145.443 119.303 147.26 131.193 143.906 135.728M143.906 135.728L148.728 137.908M143.906 135.728C133.843 138.562 133.424 138.78 119.168 137.908" stroke="#DBE19C" stroke-width="2"/>
<path d="M126.353 132.836C118.351 132.836 118.351 117.227 126.353 117.227C126.951 117.227 127.504 117.314 128.012 117.475C133.774 119.302 133.801 130.643 128.095 132.56C127.564 132.739 126.983 132.836 126.353 132.836Z" fill="#78654E"/>
<path d="M126.353 117.227C118.351 117.227 118.351 132.836 126.353 132.836M126.353 117.227C134.355 117.227 134.355 132.836 126.353 132.836M126.353 117.227L134.89 118.505M126.353 132.836L134.261 131.586" stroke="#9F876C" stroke-width="2"/>
<path d="M142.25 115.977C140.732 113.79 137.85 115.222 135.943 116.014C138.59 117.028 140.847 119.377 141.625 119.053C142.404 118.73 143.371 117.593 142.25 115.977Z" fill="#FEFEE4"/>
<rect width="1.28388" height="6.84048" rx="0.641939" transform="matrix(0.683839 -0.729633 0.702299 0.711882 124.617 121.185)" fill="#FEFEE4"/>
<rect width="1.28388" height="6.84048" rx="0.641939" transform="matrix(0.683839 -0.729633 0.702299 0.711882 122.103 124.672)" fill="#FEFEE4"/>
<path d="M129.231 98.4463C126.816 99.1313 121.516 108.543 120.007 112.182L123.625 111.321C124.056 108.967 127.29 103.013 129.231 102.371V98.4463Z" fill="#1F5D15" stroke="#1F5D15"/>
<path d="M159.841 77.0807C161.309 76.2086 163.196 77.2988 163.824 77.7348C160.889 93.8683 161.518 94.9584 150.617 115.016L147.263 112.182C154.81 100.409 159.841 87.9817 159.841 77.0807Z" fill="#27741A" stroke="#27741A"/>
<path d="M138.794 7.46629L143.719 0C144.669 0.0863974 146.777 0.673899 147.606 2.33273L143.2 9.50099C159.01 19.6636 163.676 36.5461 146.051 35.3498C141.823 33.9967 136.521 29.8933 129.981 26.4376C123.076 23.1229 117.792 21.875 113.911 19.1107C105.358 5.44303 119.095 0 138.794 7.46629Z" fill="url(#paint1_linear_3974_524)"/>
<defs>
<filter id="filter0_f_3974_524" x="125.229" y="41.6855" width="16.3857" height="16.7207" filterUnits="userSpaceOnUse" color-interpolation-filters="sRGB">
<feFlood flood-opacity="0" result="BackgroundImageFix"/>
<feBlend mode="normal" in="SourceGraphic" in2="BackgroundImageFix" result="shape"/>
<feGaussianBlur stdDeviation="2" result="effect1_foregroundBlur_3974_524"/>
</filter>
<linearGradient id="paint0_linear_3974_524" x1="137.655" y1="81.7446" x2="189.407" y2="141.461" gradientUnits="userSpaceOnUse">
<stop stop-color="#FEFFF5"/>
<stop offset="1" stop-color="#FCFFDA"/>
</linearGradient>
<linearGradient id="paint1_linear_3974_524" x1="140.867" y1="8.81253" x2="129.722" y2="26.1784" gradientUnits="userSpaceOnUse">
<stop stop-color="#303981"/>
<stop offset="1" stop-color="#252B60"/>
</linearGradient>
</defs>
</svg>
