<svg width="200" height="47" viewBox="0 0 200 47" fill="none" xmlns="http://www.w3.org/2000/svg">
<path d="M81.1741 12.4429C81.1741 12.2569 81.9303 10.2482 83.4429 6.41673C84.9952 2.58529 85.8509 0.595175 86.0101 0.446381C86.1694 0.260389 86.3087 0.148794 86.4281 0.111595C86.5873 0.0371984 86.8062 0 87.0848 0C87.244 0 87.5227 0.0371984 87.9207 0.111595C88.3585 0.520778 88.5774 1.11595 88.5774 1.89712C88.5774 2.23191 88.5376 2.73408 88.458 3.40366C88.3386 3.88724 88.2789 4.38942 88.2789 4.91019C88.2789 5.28218 88.3784 5.46817 88.5774 5.46817C88.8163 5.46817 89.3337 5.26358 90.1297 4.8544C90.9656 4.44521 91.6821 4.12903 92.2791 3.90584C92.8762 3.64545 93.513 3.51525 94.1897 3.51525C94.7469 3.51525 95.2444 3.66405 95.6823 3.96163C96.1201 4.22202 96.339 4.59401 96.339 5.07759C96.339 5.63556 95.7818 6.26794 94.6673 6.97471C93.5528 7.64428 92.0204 8.44405 90.07 9.37401C89.8312 9.4856 89.3138 9.74599 88.5177 10.1552C87.7217 10.5272 87.1843 10.8247 86.9057 11.0479C86.6669 11.2339 86.448 11.4943 86.249 11.8291C86.0499 12.1639 85.9106 12.3871 85.831 12.4987C85.4728 13.131 85.1345 13.6146 84.8161 13.9494C84.4976 14.2842 84.1195 14.4516 83.6817 14.4516C83.0448 14.4516 82.4677 14.2656 81.9502 13.8936C81.4328 13.4844 81.1741 13.0009 81.1741 12.4429ZM69.8899 5.85875C69.8899 5.30078 70.1089 4.8172 70.5467 4.40801C71.0243 3.99883 71.5617 3.79424 72.1587 3.79424C73.0344 3.79424 73.8503 4.27782 74.6066 5.24498C75.4027 6.21214 75.8604 7.1421 75.9798 8.03486C76.0594 8.55564 76.139 8.92762 76.2186 9.15081C76.2982 9.33681 76.537 9.5786 76.9351 9.87618C77.6117 10.3226 77.95 10.7317 77.95 11.1037C77.95 11.6617 77.7908 12.0523 77.4724 12.2755C77.1938 12.4987 76.7162 12.7033 76.0395 12.8893C75.2434 13.1124 74.7061 13.3728 74.4275 13.6704C74.1887 13.8936 73.8503 15.0096 73.4125 17.0183C73.0145 19.027 72.8155 20.3103 72.8155 20.8683C73.1737 20.8683 73.6314 20.7939 74.1887 20.6451C74.3479 20.6079 74.527 20.5707 74.726 20.5335C74.9648 20.4963 75.2434 20.4777 75.5619 20.4777C76.5569 20.4777 77.154 21.1659 77.353 22.5422C77.552 23.8814 77.6515 25.4809 77.6515 27.3408C77.6515 28.866 77.5918 30.2051 77.4724 31.3583C77.353 32.5114 77.1142 33.6274 76.756 34.7061C76.6763 34.9293 76.4375 35.6547 76.0395 36.8822C75.6813 38.0726 75.1638 39.077 74.4872 39.8953C73.8105 40.7137 73.0742 41.1229 72.2781 41.1229C71.1636 41.1229 70.3477 40.8997 69.8302 40.4533C69.3526 40.0441 69.1138 39.3373 69.1138 38.333C69.1138 37.961 69.1934 37.7006 69.3526 37.5518C69.5118 37.403 69.7904 37.3286 70.1885 37.3286C70.5865 37.3286 70.8651 37.403 71.0243 37.5518C71.1835 37.7006 71.283 37.775 71.3229 37.775C71.4821 37.775 71.6214 37.6634 71.7408 37.4402C71.9 37.1798 71.9796 37.031 71.9796 36.9938C73.5717 33.8692 74.3678 30.3167 74.3678 26.3365C74.3678 24.3278 74.1091 23.3234 73.5916 23.3234C73.3528 23.3234 73.0145 23.528 72.5766 23.9372C72.1786 24.272 71.8403 24.7556 71.5617 25.3879C71.283 26.0203 70.9845 26.8573 70.6661 27.8988C70.1487 29.3868 69.671 30.5957 69.2332 31.5257C68.8352 32.4184 68.2779 33.1996 67.5615 33.8692C67.1236 34.2784 66.7455 34.4829 66.4271 34.4829C65.9893 34.4829 65.7106 34.3899 65.5912 34.204C65.4718 33.9808 65.4121 33.646 65.4121 33.1996C65.4121 31.7117 66.0092 29.0148 67.2032 25.1089C68.4371 21.1659 69.5715 17.818 70.6064 15.0654H70.6661L70.6064 14.7306C69.4919 14.7306 68.2381 15.1026 66.845 15.8465C66.4072 15.8465 66.049 15.6791 65.7703 15.3444C65.5315 15.0096 65.4121 14.6376 65.4121 14.2284C65.4121 13.7448 65.83 13.2612 66.6659 12.7777C67.5018 12.2941 68.6561 11.7361 70.1288 11.1037C70.3278 11.0293 70.6661 10.8805 71.1437 10.6574C71.6214 10.4342 71.9597 10.2482 72.1587 10.0994C72.3975 9.95058 72.5169 9.83899 72.5169 9.76459C72.5169 9.35541 72.4174 9.03922 72.2184 8.81603C72.0194 8.55564 71.6811 8.22085 71.2034 7.81167C70.7656 7.43969 70.4273 7.1235 70.1885 6.86311C69.9895 6.56552 69.8899 6.23074 69.8899 5.85875ZM81.5323 20.5893C81.5323 19.5478 82.2886 18.283 83.8011 16.7951C85.3534 15.3072 87.1246 14.0052 89.1148 12.8893C91.1049 11.7733 92.6572 11.2153 93.7717 11.2153C94.4484 11.2153 94.9658 11.4013 95.324 11.7733C95.6823 12.1081 95.8614 12.5917 95.8614 13.224C95.8614 13.8936 95.4434 14.5632 94.6076 15.2328C93.7717 15.9023 92.6174 16.6649 91.1447 17.5205C90.5079 17.8924 89.8909 18.283 89.2939 18.6922C88.6968 19.0642 88.2789 19.399 88.0401 19.6966L88.5774 19.4176C88.6968 20.3103 88.7565 21.2031 88.7565 22.0959C88.7565 25.6669 88.2988 29.0334 87.3833 32.1952C87.3435 32.3812 87.244 32.6788 87.0848 33.088C86.9654 33.4972 86.9057 33.8692 86.9057 34.204L87.0251 34.4829C87.2639 34.3713 87.6819 34.1296 88.2789 33.7576C88.876 33.3856 89.3934 33.1996 89.8312 33.1996C90.3089 33.1996 90.7069 33.3856 91.0253 33.7576C91.3437 34.0924 91.503 34.4829 91.503 34.9293C91.503 35.3385 91.2243 35.7849 90.6671 36.2685C90.1497 36.7149 89.4332 37.1984 88.5177 37.7192C87.5625 38.3144 86.9853 38.7236 86.7863 38.9468C86.5873 39.1328 86.3883 39.3745 86.1893 39.6721C86.03 39.9697 85.9106 40.1743 85.831 40.2859C85.5922 40.7323 85.3932 41.0671 85.234 41.2903C84.6767 41.997 84.1991 42.5364 83.8011 42.9084C83.403 43.3176 83.005 43.5222 82.607 43.5222C81.7711 43.5222 81.2338 43.1874 80.995 42.5178C80.7562 41.8854 80.6367 41.0857 80.6367 40.1185C80.6367 39.2629 80.7363 38.4446 80.9353 37.6634C81.1741 36.845 81.5124 35.8407 81.9502 34.6503L82.6667 32.4742C83.1045 31.0979 83.6419 29.2008 84.2787 26.7829C84.9554 24.3278 85.2937 22.7654 85.2937 22.0959L85.1743 21.7611L84.9355 21.7053C84.7364 21.7053 84.4379 21.8169 84.0399 22.0401C83.6419 22.2261 83.3035 22.3191 83.0249 22.3191C82.5871 22.3191 82.2289 22.1331 81.9502 21.7611C81.6716 21.3891 81.5323 20.9985 81.5323 20.5893ZM89.2342 28.7916C89.2342 28.494 89.4531 28.1592 89.8909 27.7872C90.3686 27.378 90.6472 27.1363 90.7268 27.0619C91.1248 26.7643 91.901 25.8529 93.0553 24.3278C94.6474 22.3935 95.8813 20.9799 96.7569 20.0872C97.6326 19.1572 98.3491 18.6922 98.9063 18.6922C99.5033 18.6922 100.061 18.9526 100.578 19.4734C101.135 19.957 101.414 20.4777 101.414 21.0357C101.414 21.2961 100.916 21.9099 99.9213 22.877C98.966 23.807 97.6326 25.0159 95.9211 26.5039C94.4484 27.7314 93.712 28.401 93.712 28.5126C93.712 28.6614 93.8314 28.773 94.0702 28.8474C94.3091 28.9218 94.4484 28.959 94.4882 28.959C95.4036 29.2566 97.0555 30.0377 99.4436 31.3025C101.832 32.5672 104.061 33.8692 106.131 35.2083C108.24 36.5475 109.494 37.5332 109.892 38.1656C110.21 38.6492 110.37 39.2629 110.37 40.0069C110.37 40.2673 110.29 40.5463 110.131 40.8439C110.011 41.1415 109.832 41.2903 109.593 41.2903C109.394 41.2903 109.136 41.2531 108.817 41.1787C108.419 41.1043 107.524 40.6021 106.131 39.6721C104.777 38.7794 103.862 38.1842 103.384 37.8866C101.076 36.2871 99.5232 35.3013 98.7272 34.9293L97.2346 34.1482C95.3638 33.2554 93.7916 32.4556 92.5179 31.7489C91.284 31.0421 90.4084 30.4097 89.8909 29.8517C89.8511 29.8145 89.7317 29.6843 89.5327 29.4612C89.3337 29.238 89.2342 29.0148 89.2342 28.7916Z" fill="#FEFFF5"/>
<path d="M126.908 9.4856C126.908 9.67159 126.908 10.0994 126.908 10.7689C126.947 11.4385 126.808 11.9407 126.49 12.2755C126.171 12.6103 125.634 12.7777 124.878 12.7777C124.281 12.7777 123.843 12.5173 123.564 11.9965C123.325 11.4385 123.126 10.8619 122.967 10.2668C122.848 9.63439 122.748 9.18801 122.669 8.92762L120.937 8.76023C119.664 8.61144 118.668 8.53704 117.952 8.53704L116.639 8.59284C115.723 8.59284 115.265 8.25805 115.265 7.58848C115.265 6.84451 115.624 6.36093 116.34 6.13774C117.096 5.87735 118.171 5.69136 119.564 5.57976C120.201 5.54257 120.798 5.48677 121.355 5.41237C121.952 5.30078 122.39 5.15198 122.669 4.96599C122.907 4.8172 123.067 4.59401 123.146 4.29642C123.266 3.99883 123.365 3.58965 123.445 3.06887C123.564 2.2877 123.704 1.72973 123.863 1.39494C124.062 1.02296 124.46 0.836965 125.057 0.836965C125.335 0.836965 125.594 0.892762 125.833 1.00436C126.032 1.26475 126.211 1.99012 126.37 3.18047C126.45 3.96163 126.53 4.48241 126.609 4.7428C129.594 4.7428 131.405 4.6312 132.042 4.40801C132.361 4.29642 132.6 4.11043 132.759 3.85004C132.958 3.55245 133.216 3.08747 133.535 2.4551C133.813 1.78552 134.092 1.28335 134.371 0.94856C134.649 0.576576 135.027 0.390584 135.505 0.390584C135.704 0.390584 135.863 0.48358 135.983 0.669572C136.102 1.45074 136.162 2.62249 136.162 4.18482L137.953 4.12903C140.102 4.12903 141.177 4.61261 141.177 5.57976C141.177 6.28654 140.839 6.75152 140.162 6.97471C139.525 7.1979 138.59 7.36529 137.356 7.47688C136.401 7.55128 135.764 7.64428 135.445 7.75587C135.087 7.90467 134.789 8.14646 134.55 8.48124C134.311 8.81603 134.032 9.26241 133.714 9.82039C133.276 10.5272 132.918 11.0479 132.639 11.3827C132.4 11.6803 132.062 11.8291 131.624 11.8291C131.346 11.8291 131.007 11.7547 130.609 11.6059C130.251 11.1967 130.072 10.7503 130.072 10.2668C130.072 10.0808 130.132 9.83899 130.251 9.5414C130.41 9.20661 130.49 8.96482 130.49 8.81603C130.49 8.55564 130.39 8.40685 130.191 8.36965C130.032 8.29525 129.793 8.25805 129.475 8.25805C128.719 8.25805 128.102 8.33245 127.624 8.48124C127.147 8.63004 126.908 8.96482 126.908 9.4856ZM131.445 44.4707C130.172 44.4707 129.037 44.2847 128.042 43.9128C127.047 43.5408 126.549 42.8526 126.549 41.8482C126.549 39.4303 126.808 37.124 127.326 34.9293C127.445 34.4086 127.545 33.7018 127.624 32.809C127.704 31.4327 127.903 30.4097 128.221 29.7401C128.38 29.4426 128.46 29.2008 128.46 29.0148L128.341 28.8474C127.982 28.959 127.186 29.61 125.952 30.8003C124.719 31.9535 123.883 32.7346 123.445 33.1438C121.375 35.1153 119.723 36.6405 118.489 37.7192C117.295 38.7608 116.479 39.2815 116.041 39.2815C115.683 39.2815 115.365 39.1699 115.086 38.9468C114.808 38.7236 114.668 38.4446 114.668 38.1098C114.668 37.2914 115.783 35.5989 118.012 33.0322C120.28 30.4283 122.072 28.5312 123.385 27.3408C124.102 26.6713 124.599 26.1505 124.878 25.7785C124.48 25.3321 123.922 25.0159 123.206 24.83C123.087 24.8672 122.609 25.0159 121.773 25.2763C120.977 25.5367 120.161 25.6669 119.325 25.6669C118.211 25.6669 117.654 25.3321 117.654 24.6626C117.654 23.8442 117.952 23.249 118.549 22.877C119.186 22.505 120.101 22.1517 121.295 21.8169C122.37 21.5193 123.166 21.2403 123.684 20.9799C124.201 20.6823 124.46 20.2173 124.46 19.585C124.46 19.3246 124.221 19.1944 123.743 19.1944C123.306 19.1944 122.689 19.2688 121.893 19.4176C121.096 19.5664 120.48 19.6408 120.042 19.6408C119.723 19.6408 119.405 19.4734 119.086 19.1386C118.768 18.7666 118.609 18.4318 118.609 18.1342C118.609 17.2787 118.947 16.6835 119.624 16.3487C120.3 16.0139 121.295 15.7535 122.609 15.5675C123.365 15.4559 123.982 15.3444 124.46 15.2328C124.937 15.1212 125.316 14.9538 125.594 14.7306C125.674 14.5818 125.833 14.2842 126.072 13.8378C126.35 13.3542 126.649 13.0009 126.967 12.7777C127.326 12.5545 127.744 12.4429 128.221 12.4429C128.699 12.4429 129.037 12.6289 129.236 13.0009C129.435 13.3356 129.535 13.7448 129.535 14.2284C129.933 14.5632 131.007 14.7306 132.759 14.7306C133.873 14.7306 134.57 14.7678 134.848 14.8422C135.167 14.9166 135.386 15.0654 135.505 15.2886C135.704 15.6605 136.003 15.9767 136.401 16.2371L137.714 16.1813C138.431 16.1813 138.968 16.4789 139.326 17.0741C139.286 17.3345 138.968 17.7065 138.371 18.19C138.092 18.4504 137.834 18.7108 137.595 18.9712C137.396 19.2316 137.296 19.4734 137.296 19.6966C137.296 19.8826 137.356 20.0314 137.475 20.143C137.635 20.2173 137.814 20.2917 138.013 20.3661C138.212 20.4033 138.331 20.4219 138.371 20.4219C138.769 20.4963 139.068 20.6079 139.267 20.7567C139.505 20.8683 139.625 21.0729 139.625 21.3705C139.625 21.9657 139.426 22.4493 139.028 22.8212C138.63 23.156 138.112 23.3234 137.475 23.3234C136.202 23.3234 135.127 23.4908 134.251 23.8256C133.415 24.1604 132.679 24.6254 132.042 25.2205C131.445 25.7785 130.689 26.6155 129.774 27.7314L129.833 27.7872H132.759H133.833C134.51 27.7872 135.008 27.8616 135.326 28.0104C136.162 28.308 136.699 29.0334 136.938 30.1865C137.177 31.3397 137.296 32.6416 137.296 34.0924C137.296 35.9523 137.077 37.868 136.64 39.8395C136.6 39.9883 136.58 40.1929 136.58 40.4533C136.58 40.6765 136.62 40.9741 136.699 41.3461C136.819 41.718 136.878 41.997 136.878 42.183C136.878 43.0758 136.281 43.671 135.087 43.9685C133.933 44.3033 132.719 44.4707 131.445 44.4707ZM130.012 19.3618C130.012 19.5478 130.052 19.7524 130.132 19.9756C130.211 20.1616 130.351 20.2545 130.55 20.2545C130.788 20.2545 131.266 19.9756 131.983 19.4176C132.739 18.8224 133.197 18.3946 133.356 18.1342C133.316 17.9854 133.137 17.911 132.818 17.911C130.948 17.911 130.012 18.3946 130.012 19.3618ZM131.744 33.646C132.221 33.646 132.699 33.5716 133.177 33.4228C133.694 33.274 133.953 33.0322 133.953 32.6974C133.953 32.4742 133.893 32.2696 133.774 32.0836C133.654 31.8605 133.475 31.7489 133.236 31.7489C132.878 31.7489 132.42 31.9349 131.863 32.3068C131.346 32.6416 131.087 32.9578 131.087 33.2554C131.087 33.5158 131.306 33.646 131.744 33.646ZM130.072 40.5091C130.51 40.5091 131.127 40.4161 131.923 40.2301C132.759 40.0813 133.256 39.8953 133.415 39.6721C133.535 39.4861 133.595 39.2443 133.595 38.9468C133.595 38.612 133.595 38.426 133.595 38.3888C133.595 37.9052 133.515 37.5704 133.356 37.3844C133.236 37.1612 132.938 37.0496 132.46 37.0496C131.386 37.0496 130.709 37.2728 130.43 37.7192C130.191 38.1284 130.072 38.891 130.072 40.0069V40.5091Z" fill="#FEFFF5"/>
<path d="M186.886 40.0717C187.708 39.2501 189.368 39.1731 190.095 39.2373C190.673 39.2882 191.187 39.9434 191.251 40.2643C191.314 40.579 191.251 42.3826 190.416 43.217C189.582 44.0515 189.004 43.6022 189.582 42.7035C190.16 41.8049 189.454 41.8441 189.197 41.9974C189.065 42.0764 188.427 42.5323 188.041 42.7035C187.592 43.217 186.039 42.7684 187.271 41.8441C188.504 40.9197 188.041 40.6887 187.656 40.6887C186.993 40.8384 186.064 40.8933 186.886 40.0717Z" fill="#FEFFF5"/>
<path d="M190.482 35.0825C191.304 34.2608 192.964 34.1838 193.692 34.248C194.269 34.299 194.783 34.9541 194.847 35.2751C194.91 35.5898 194.847 37.3933 194.013 38.2278C193.178 39.0622 192.6 38.6129 193.178 37.7142C193.756 36.8156 193.05 36.8548 192.793 37.0082C192.661 37.0872 192.023 37.5431 191.638 37.7142C191.188 38.2278 189.635 37.7791 190.867 36.8548C192.1 35.9305 191.638 35.6994 191.253 35.6994C190.589 35.8492 189.661 35.9041 190.482 35.0825Z" fill="#FEFFF5"/>
<path d="M195.618 38.8051C196.439 37.9835 198.1 37.9065 198.827 37.9707C199.405 38.0216 199.918 38.6768 199.982 38.9977C200.045 39.3124 199.982 41.116 199.148 41.9504C198.314 42.7849 197.736 42.3356 198.314 41.4369C198.891 40.5383 198.185 40.5775 197.928 40.7308C197.796 40.8098 197.158 41.2657 196.773 41.4369C196.324 41.9504 194.77 41.5018 196.003 40.5775C197.235 39.6531 196.773 39.422 196.388 39.422C195.725 39.5718 194.796 39.6267 195.618 38.8051Z" fill="#FEFFF5"/>
<path fill-rule="evenodd" clip-rule="evenodd" d="M170.383 25.2248C170.383 25.2249 170.383 25.2275 170.384 25.2325C170.383 25.2272 170.383 25.2247 170.383 25.2248ZM170.41 25.3091C171.255 23.5144 171.457 21.9147 171.15 20.5634C170.832 19.167 169.989 18.1195 168.929 17.4597C166.868 16.1768 163.85 16.3054 162.146 18.2654C161.527 18.9768 160.975 20.1321 160.702 21.2682C160.184 21.6786 159.658 22.1578 159.232 22.5694C158.759 23.0268 158.35 23.4566 158.22 23.6301C158.126 23.7552 157.969 24.008 157.82 24.2967C157.67 24.5867 157.497 24.9713 157.405 25.3553C157.358 25.5476 157.324 25.7739 157.34 26.0065C157.342 26.0426 157.346 26.0799 157.351 26.1183C156.517 26.2317 155.765 26.669 155.359 27.3125C155.033 27.8302 154.938 28.4899 155.254 29.1305C155.388 29.4023 155.583 29.6464 155.832 29.8639C155.543 30.1481 155.329 30.4659 155.202 30.8168C154.939 31.5471 155.113 32.2621 155.508 32.8253C156.094 33.6599 157.185 34.227 158.408 34.3749C158.404 34.4858 158.407 34.5968 158.419 34.7074C158.471 35.194 158.678 35.6173 158.978 35.9653C159.557 36.6382 160.485 37.0381 161.458 37.2352C163.155 37.5786 165.356 37.3808 167.237 36.4741C167.912 38.0825 169.024 39.2671 170.385 40.0268C170.312 40.315 170.202 40.6804 170.062 41.0501C169.942 41.3678 169.813 41.6534 169.689 41.8658C169.642 41.9461 169.604 42.0022 169.576 42.0403C169.534 42.0432 169.486 42.0463 169.433 42.0498C169.38 42.0533 169.316 42.057 169.244 42.0611C168.748 42.0899 167.851 42.1418 167.196 42.3023C167.011 42.3477 166.793 42.4391 166.617 42.6217C166.427 42.819 166.303 43.1139 166.361 43.4431C166.468 44.0508 167.038 44.253 167.341 44.2968C167.429 44.3096 167.5 44.3202 167.553 44.3294C167.562 44.331 167.569 44.3324 167.576 44.3336C167.599 44.3431 167.619 44.3516 167.637 44.3593C167.619 44.4111 167.597 44.4704 167.571 44.5382C167.372 45.0544 167.458 45.6818 167.968 46.0435C168.45 46.3846 169.047 46.2991 169.48 46.0093C169.559 45.9562 169.621 45.9182 169.666 45.8938C169.674 45.8895 169.68 45.886 169.685 45.8833C169.872 45.8442 170.027 45.8497 170.158 45.872C170.327 45.9009 170.467 45.9584 170.628 46.0275L170.64 46.0329C170.699 46.0579 170.79 46.0973 170.878 46.1252L170.88 46.1257C170.948 46.1477 171.184 46.2228 171.454 46.1462C171.837 46.0376 172.008 45.7291 172.065 45.5092C172.112 45.3306 172.103 45.1557 172.094 45.0456C172.046 44.4691 171.904 44.0232 171.806 43.713L171.802 43.7015C171.754 43.5503 171.726 43.4596 171.71 43.3849C171.703 43.3531 171.701 43.3348 171.7 43.3269C171.75 42.9817 171.975 42.215 172.238 41.5012C172.333 41.2452 172.426 41.0145 172.508 40.8299C172.824 40.9009 173.147 40.9543 173.474 40.9901C174.435 41.095 175.436 41.0497 176.442 40.8571C176.611 41.0467 176.799 41.2828 176.959 41.5264C177.088 41.7227 177.183 41.9 177.236 42.0437C177.249 42.0765 177.257 42.104 177.264 42.1267C177.238 42.1635 177.209 42.2052 177.175 42.2527C177.097 42.3638 176.985 42.5052 176.841 42.6847C176.767 42.7775 176.685 42.8805 176.596 42.9946C176.355 43.3012 176.075 43.6717 175.874 44.0214C175.773 44.1967 175.689 44.4299 175.711 44.6955C175.734 44.9812 175.879 45.2489 176.129 45.4192C176.593 45.7355 177.114 45.564 177.403 45.3759C177.43 45.3586 177.456 45.3418 177.48 45.3257C177.541 45.286 177.597 45.25 177.644 45.2192C177.678 45.1977 177.705 45.1804 177.725 45.1674C177.743 45.1566 177.75 45.1524 177.75 45.1522C177.797 45.1263 177.833 45.1066 177.861 45.0913C177.882 45.1115 177.905 45.1353 177.931 45.1626C178.035 45.2721 178.166 45.4182 178.31 45.5846C178.625 45.9472 179.184 46.2468 179.768 45.9943C180.383 45.7283 180.515 45.0805 180.424 44.5935C180.41 44.5226 180.4 44.4602 180.392 44.4058C180.389 44.3791 180.386 44.3558 180.384 44.3357C180.487 44.1985 180.598 44.0991 180.706 44.0223C180.834 43.931 180.958 43.8701 181.093 43.8054C181.097 43.8033 181.101 43.8012 181.106 43.7989C181.163 43.7716 181.259 43.7257 181.34 43.6751C181.386 43.6461 181.464 43.5942 181.539 43.5159C181.616 43.437 181.73 43.2901 181.771 43.0721C181.861 42.5854 181.517 42.2909 181.447 42.2323C181.334 42.139 181.201 42.0658 181.097 42.0119C180.656 41.7844 180.32 41.641 180.071 41.5343L180.069 41.5336C179.883 41.4539 179.779 41.4088 179.7 41.3658C179.633 41.3299 179.612 41.31 179.601 41.298C179.394 41.0791 179.161 40.6486 178.899 40.1516L178.892 40.1383C178.885 40.1265 178.879 40.1146 178.873 40.1026C180.088 39.5763 181.266 38.8318 182.341 37.8743C183.23 37.7022 183.961 37.1537 184.285 36.3478C184.541 35.7119 184.507 35.0079 184.203 34.3389C184.632 34.0686 185.089 33.7077 185.424 33.282C185.715 32.9113 185.985 32.3993 185.941 31.7969C185.919 31.4935 185.821 31.2145 185.662 30.9611C185.858 30.792 186.035 30.6213 186.189 30.4508C186.494 30.1115 186.789 29.6841 186.857 29.2064C186.893 28.9469 186.863 28.6637 186.722 28.3965C186.583 28.1336 186.368 27.9478 186.138 27.8209C185.706 27.5819 185.13 27.5007 184.492 27.5007C183.162 27.5007 182.219 27.8107 181.428 28.0947C181.377 28.1131 181.327 28.1311 181.278 28.1488C180.568 28.4048 180.048 28.592 179.388 28.596C178.954 28.5697 178.481 28.449 177.94 28.2624C177.593 28.1427 177.258 28.011 176.899 27.8702C176.67 27.7802 176.431 27.6865 176.174 27.5897C174.938 27.1252 173.483 26.676 171.853 26.9112C171.809 26.8915 171.739 26.853 171.646 26.7865C171.441 26.6401 171.2 26.4139 170.974 26.1525C170.748 25.8905 170.566 25.627 170.461 25.4212C170.438 25.376 170.422 25.3387 170.41 25.3091ZM171.889 26.9245C171.889 26.9245 171.887 26.9242 171.884 26.9231C171.887 26.9238 171.889 26.9244 171.889 26.9245ZM178.795 42.6614L178.728 42.772C178.662 42.8805 178.566 43.0171 178.477 43.1427L178.465 43.16C178.396 43.2586 178.302 43.3801 178.2 43.5096C178.367 43.5495 178.52 43.6202 178.659 43.7076C178.725 43.7495 178.793 43.8048 178.858 43.8626C178.883 43.7801 178.918 43.6953 178.969 43.6132C179.125 43.3626 179.3 43.16 179.476 42.995C179.467 42.9911 179.458 42.9872 179.449 42.9834C179.429 42.975 179.409 42.9666 179.389 42.958C179.203 42.879 178.995 42.7904 178.795 42.6614ZM177.399 38.98C178.803 38.5124 180.202 37.7063 181.453 36.5511L181.646 36.3733L181.906 36.3462C182.422 36.2925 182.715 36.0265 182.822 35.7598C182.924 35.5061 182.927 35.0763 182.481 34.5485L181.781 33.72L182.785 33.31C183.174 33.151 183.838 32.7475 184.184 32.3077C184.352 32.0939 184.372 31.9648 184.368 31.9117C184.366 31.8876 184.354 31.7431 184.031 31.5111L183.131 30.8633L184.039 30.2258C184.467 29.9248 184.796 29.6403 185.017 29.3952C185.105 29.2983 185.169 29.2143 185.214 29.1445C185.073 29.1098 184.844 29.0775 184.492 29.0775C183.435 29.0775 182.695 29.3152 181.961 29.5788C181.901 29.6005 181.84 29.6226 181.778 29.6449C181.095 29.8931 180.325 30.1729 179.367 30.1729H179.346L179.325 30.1718C178.67 30.1367 178.03 29.9615 177.426 29.7531C177.055 29.6252 176.658 29.4695 176.271 29.3179C176.048 29.2305 175.828 29.1443 175.619 29.0657C174.411 28.6118 173.254 28.2858 172.018 28.4811C171.728 28.5268 171.466 28.4551 171.278 28.3798C171.082 28.3009 170.896 28.1885 170.729 28.0696C170.396 27.8315 170.064 27.5111 169.781 27.1832C169.498 26.8558 169.235 26.4873 169.057 26.1375C168.968 25.9642 168.886 25.7678 168.843 25.5651C168.802 25.3792 168.77 25.076 168.917 24.7741C169.711 23.1511 169.829 21.868 169.612 20.9129C169.396 19.9636 168.832 19.2564 168.096 18.7985C166.566 17.846 164.44 18.0304 163.335 19.3001C162.928 19.7689 162.489 20.64 162.258 21.5448C162.363 21.6524 162.472 21.7093 162.571 21.7418C162.742 21.7985 162.904 21.787 162.975 21.7705L164.19 21.4871L163.925 22.7058C163.776 23.3893 163.906 23.7655 164.094 24.1418L164.356 24.666L163.93 25.068C163.889 25.1062 163.848 25.1438 163.806 25.1807C164.264 25.4008 164.831 25.5904 165.504 25.7141C166.431 25.8843 167.285 26.1027 167.761 26.8243C167.991 27.1741 168.086 27.5714 168.132 27.9656C168.179 28.3573 168.184 28.8223 168.184 29.3454V29.4165L168.172 29.4864C168.094 29.9124 168.029 30.8865 168.053 32.0051C168.077 33.1227 168.19 34.2875 168.427 35.1125C168.94 36.8908 170.037 38.1215 171.46 38.8104L171.601 38.876C171.744 38.9427 171.983 39.0313 172.186 39.1018C172.263 39.1289 172.33 39.1514 172.375 39.1662C172.389 39.1701 172.403 39.1744 172.417 39.1792C172.811 39.2951 173.222 39.3762 173.646 39.4225C174.56 39.5224 175.537 39.4587 176.526 39.2274C176.893 39.1335 177.184 39.0486 177.399 38.98ZM170.141 43.5636L170.134 43.5674L170.002 43.5846C169.877 43.6012 169.71 43.612 169.556 43.622L169.536 43.6233C169.466 43.6278 169.39 43.6324 169.31 43.6372C169.253 43.6406 169.193 43.6442 169.132 43.648C169.172 43.7262 169.207 43.8122 169.235 43.9069C169.288 44.0838 169.278 44.244 169.268 44.3341C169.267 44.3435 169.266 44.3529 169.264 44.3622C169.273 44.3601 169.281 44.3581 169.289 44.3561C169.679 44.2644 170.031 44.2616 170.339 44.3046C170.326 44.2622 170.312 44.22 170.299 44.1779C170.294 44.1614 170.288 44.1437 170.282 44.1251C170.237 43.9838 170.172 43.7845 170.141 43.5636ZM170.524 45.2117C170.524 45.2115 170.524 45.2097 170.524 45.2064C170.524 45.2102 170.524 45.2119 170.524 45.2117ZM162.436 24.2474C162.347 23.9665 162.288 23.6543 162.284 23.2964C161.959 23.2221 161.617 23.0742 161.306 22.8129C160.965 23.1027 160.626 23.4154 160.328 23.7034C160.095 23.9282 159.892 24.1333 159.739 24.2943C159.662 24.375 159.599 24.4427 159.552 24.495C159.505 24.5479 159.485 24.5725 159.482 24.5759C159.482 24.5762 159.482 24.5763 159.482 24.5762C159.482 24.5762 159.479 24.5797 159.474 24.5877C159.468 24.5954 159.461 24.6057 159.453 24.6187C159.436 24.6447 159.414 24.6786 159.39 24.7194C159.34 24.8011 159.281 24.905 159.221 25.0212C159.118 25.2192 159.027 25.4264 158.97 25.6079C158.972 25.6075 158.973 25.6071 158.975 25.6067C159.463 25.4864 160.208 25.2847 160.956 24.9931C161.326 24.8489 161.679 24.6894 161.994 24.5165C162.004 24.5108 162.014 24.5053 162.024 24.5C162.171 24.4186 162.309 24.3344 162.436 24.2474ZM158.674 25.6476C158.674 25.6472 158.679 25.6475 158.687 25.6495C158.678 25.6489 158.674 25.6479 158.674 25.6476ZM166.765 34.9465C166.578 34.0369 166.497 32.9842 166.477 32.0393C166.461 31.3452 166.478 30.6747 166.516 30.1241C164.018 30.0664 162.804 29.7534 161.785 29.2771C161.467 29.1281 161.194 28.9796 160.921 28.8311C160.244 28.4623 159.567 28.0939 158.191 27.7198C157.504 27.5331 156.882 27.8537 156.693 28.1529C156.623 28.2641 156.623 28.3423 156.668 28.4338C156.732 28.5642 156.949 28.8247 157.572 29.0891L159.122 29.7474L157.624 30.5163C156.98 30.8463 156.754 31.1624 156.686 31.352C156.627 31.5129 156.642 31.6953 156.799 31.9194C157.151 32.421 158.125 32.9245 159.351 32.8237L160.738 32.7097L160.122 33.9583C159.994 34.2177 159.973 34.4071 159.987 34.5395C160.001 34.669 160.055 34.7995 160.172 34.9363C160.428 35.2328 160.962 35.5259 161.771 35.6897C163.224 35.9838 165.178 35.7818 166.765 34.9465ZM166.596 28.5486C164.192 28.4962 163.209 28.2022 162.453 27.8488C162.237 27.7476 162.018 27.6285 161.778 27.4979C161.409 27.2968 160.989 27.0684 160.45 26.8354C160.789 26.7311 161.157 26.6071 161.529 26.4623C161.781 26.3638 162.043 26.253 162.303 26.1288C163.047 26.6444 164.04 27.0484 165.219 27.265C166.222 27.4492 166.385 27.6025 166.444 27.6921C166.481 27.7478 166.533 27.866 166.566 28.15C166.58 28.2665 166.589 28.3979 166.596 28.5486Z" fill="#FEFFF5"/>
<path d="M178.055 42.3618C178.203 41.678 177.192 40.4525 176.707 39.9948C177.098 39.8951 177.411 39.8039 177.646 39.7287C177.881 39.6532 178.431 41.2083 179.028 41.8395C179.196 42.0177 179.408 42.1082 179.759 42.2584L179.759 42.2584C180.005 42.3636 180.32 42.4982 180.736 42.7126C181.127 42.9142 181.032 42.9597 180.751 43.0948C180.616 43.1599 180.437 43.2458 180.249 43.3801C180.042 43.5269 179.825 43.7315 179.639 44.0298C179.533 44.1996 179.623 44.6346 179.722 45.0962C179.813 45.5154 179.42 45.6719 179.143 45.3444C178.759 44.89 178.374 44.4601 178.239 44.3747C178.126 44.2841 177.793 44.1753 177.364 44.4645C177.299 44.5006 177.061 44.6589 176.828 44.809C176.583 44.9673 176.346 44.828 176.476 44.5665C176.78 43.9539 177.529 43.1211 177.82 42.7063C177.919 42.5661 178.002 42.4475 178.055 42.3618Z" fill="#FEFFF5"/>
<path fill-rule="evenodd" clip-rule="evenodd" d="M178.899 40.1515C179.161 40.6486 179.394 41.0791 179.601 41.2979C179.612 41.31 179.633 41.3298 179.699 41.3658C179.779 41.4087 179.883 41.4539 180.069 41.5335L180.069 41.5335L180.071 41.5343C180.072 41.5348 180.073 41.5352 180.074 41.5357L180.09 41.5427L180.09 41.5427C180.338 41.6485 180.667 41.7903 181.097 42.0118C181.201 42.0658 181.334 42.1389 181.447 42.2323C181.517 42.2908 181.86 42.5853 181.77 43.0721C181.73 43.2901 181.615 43.437 181.539 43.5158C181.464 43.5941 181.386 43.6461 181.34 43.675C181.259 43.7256 181.163 43.7715 181.106 43.7988C181.101 43.8011 181.097 43.8033 181.093 43.8053C180.958 43.87 180.834 43.931 180.706 44.0223C180.598 44.0991 180.487 44.1985 180.384 44.3357C180.385 44.3443 180.386 44.3535 180.387 44.3633C180.403 44.5056 180.441 44.691 180.493 44.9297C180.592 45.3876 180.451 45.9878 179.873 46.2283C179.338 46.4506 178.825 46.1905 178.54 45.8534C178.352 45.6301 178.168 45.4185 178.017 45.2552C177.954 45.1863 177.9 45.1301 177.857 45.087C177.843 45.0945 177.825 45.1046 177.805 45.1182L177.777 45.1373L177.747 45.1538C177.748 45.1531 177.749 45.1527 177.749 45.1528C177.749 45.1528 177.737 45.1596 177.708 45.1785C177.676 45.1983 177.636 45.2242 177.588 45.2553C177.556 45.2764 177.519 45.3 177.481 45.3251C177.41 45.3714 177.331 45.4225 177.256 45.4715L176.834 44.8183L177.256 45.4715C176.978 45.6505 176.508 45.7824 176.083 45.5072C175.859 45.3623 175.707 45.1312 175.663 44.8652C175.622 44.6132 175.684 44.3866 175.769 44.2155C175.961 43.8309 176.269 43.414 176.53 43.0784C176.647 42.9284 176.752 42.7967 176.845 42.6805C176.984 42.5057 177.095 42.3662 177.175 42.2526C177.209 42.2052 177.238 42.1634 177.264 42.1267C177.257 42.104 177.248 42.0764 177.236 42.0437C177.183 41.9 177.088 41.7226 176.959 41.5263C176.701 41.1325 176.367 40.7583 176.165 40.5683L175.123 39.5844L176.512 39.2307C176.889 39.1346 177.187 39.0477 177.405 38.9779C177.888 38.8232 178.23 39.143 178.289 39.1982C178.398 39.3013 178.483 39.4228 178.538 39.5091C178.654 39.687 178.779 39.9244 178.892 40.1383L178.899 40.1515ZM179.449 42.9832C179.429 42.9749 179.409 42.9665 179.389 42.958C179.203 42.8789 178.995 42.7904 178.795 42.6613L178.728 42.772C178.662 42.8804 178.566 43.017 178.477 43.1426C178.473 43.1484 178.469 43.1542 178.465 43.1599C178.396 43.2582 178.3 43.3825 178.195 43.5161C178.387 43.5542 178.559 43.6304 178.698 43.7338C178.757 43.7745 178.811 43.8206 178.857 43.8622C178.882 43.7822 178.917 43.6971 178.969 43.6132C179.125 43.3626 179.3 43.16 179.476 42.995C179.467 42.9911 179.458 42.9872 179.449 42.9833L179.449 42.9833C179.449 42.9833 179.449 42.9833 179.449 42.9832Z" fill="#FEFFF5"/>
<path d="M170.06 42.7293C170.686 42.4163 171.177 40.4229 171.229 39.7578C171.49 39.8789 171.965 39.9816 172.146 40.0075C172.162 39.9971 172.177 39.9937 172.19 39.9981C172.244 40.016 172.218 40.0179 172.146 40.0075C171.872 40.1827 171.188 42.3474 171.077 43.1596C171.05 43.358 171.121 43.5824 171.211 43.866C171.308 44.173 171.428 44.5494 171.468 45.0374C171.499 45.4004 171.377 45.3482 171.099 45.2291L171.099 45.2291C170.936 45.1596 170.721 45.0673 170.451 45.0212C170.218 44.9814 169.944 44.9761 169.63 45.05C169.534 45.0724 169.38 45.1608 169.202 45.2805C168.737 45.5916 168.266 45.2698 168.467 44.7478C168.588 44.4316 168.675 44.1749 168.64 44.0594C168.641 43.9133 168.511 43.5994 167.99 43.5119C167.94 43.4912 167.789 43.4682 167.614 43.4429C167.235 43.388 167.172 43.0856 167.544 42.9944C168.208 42.8318 169.178 42.7933 169.645 42.7629C169.816 42.7518 169.96 42.7424 170.06 42.7293Z" fill="#FEFFF5"/>
<path fill-rule="evenodd" clip-rule="evenodd" d="M170.531 38.5649L171.561 39.0428C171.623 39.0716 171.749 39.1133 171.911 39.1542C172 39.1769 172.083 39.195 172.148 39.2079C172.238 39.2045 172.336 39.2157 172.439 39.2503L172.19 39.9983L172.439 39.2503C172.439 39.2503 172.44 39.2504 172.44 39.2506C172.451 39.2539 172.544 39.2835 172.637 39.3419C172.664 39.3589 172.737 39.4065 172.81 39.4891C172.866 39.5537 173.063 39.7992 172.993 40.161C172.939 40.4412 172.763 40.5977 172.647 40.6737C172.633 40.7028 172.618 40.7361 172.602 40.774C172.511 40.9839 172.404 41.2715 172.299 41.5916C172.086 42.2369 171.908 42.9163 171.86 43.2533C171.861 43.2612 171.863 43.2795 171.87 43.3113C171.887 43.386 171.915 43.4767 171.963 43.628L171.966 43.6395C172.064 43.9497 172.206 44.3956 172.254 44.9721C172.263 45.0821 172.272 45.2571 172.225 45.4357C172.168 45.6555 171.997 45.9641 171.614 46.0727C171.344 46.1493 171.108 46.0741 171.04 46.0522L171.038 46.0517C170.951 46.0238 170.859 45.9844 170.801 45.9593C170.796 45.9575 170.792 45.9557 170.788 45.954L170.788 45.954C170.627 45.8849 170.487 45.8274 170.318 45.7985C170.187 45.7761 170.032 45.7707 169.846 45.8097C169.84 45.8124 169.834 45.8159 169.826 45.8203C169.781 45.8446 169.72 45.8827 169.64 45.9358C169.207 46.2256 168.61 46.3111 168.129 45.97C167.618 45.6082 167.532 44.9809 167.731 44.4647C167.758 44.3941 167.781 44.3328 167.8 44.2796L167.772 44.2749L167.736 44.2601C167.73 44.2589 167.722 44.2575 167.713 44.2559C167.66 44.2466 167.589 44.2361 167.501 44.2233C167.199 44.1795 166.628 43.9773 166.521 43.3696C166.463 43.0403 166.587 42.7455 166.777 42.5481C166.953 42.3656 167.171 42.2742 167.357 42.2288C168.012 42.0683 168.908 42.0164 169.404 41.9876C169.476 41.9834 169.54 41.9797 169.593 41.9763C169.646 41.9729 169.692 41.9698 169.734 41.967C169.755 41.937 169.781 41.8964 169.811 41.842C169.913 41.6596 170.016 41.4108 170.112 41.1257C170.305 40.5475 170.423 39.9477 170.443 39.6963L170.531 38.5649ZM167.953 44.3161C167.952 44.3161 167.952 44.3157 167.95 44.3147C167.952 44.3156 167.953 44.3161 167.953 44.3161ZM170.302 43.49L170.294 43.4938L170.163 43.5111C170.037 43.5277 169.87 43.5385 169.717 43.5484C169.71 43.5489 169.703 43.5494 169.696 43.5498C169.626 43.5543 169.551 43.5589 169.47 43.5637C169.422 43.5666 169.372 43.5696 169.32 43.5728C169.378 43.6987 169.413 43.8305 169.424 43.9624C169.443 44.0862 169.436 44.1931 169.428 44.2605C169.427 44.27 169.426 44.2794 169.425 44.2887C169.433 44.2866 169.441 44.2845 169.449 44.2826L169.629 45.0502L169.449 44.2826C169.84 44.1909 170.192 44.1881 170.499 44.231C170.486 44.1887 170.473 44.1465 170.459 44.1044C170.454 44.0878 170.448 44.0702 170.442 44.0516C170.397 43.9103 170.333 43.711 170.302 43.49ZM170.684 45.1382C170.684 45.1381 170.684 45.1362 170.684 45.1327C170.684 45.1365 170.684 45.1383 170.684 45.1382Z" fill="#FEFFF5"/>
<path fill-rule="evenodd" clip-rule="evenodd" d="M171.938 32.1733C172.278 31.9013 172.774 31.9564 173.046 32.2964C173.084 32.3434 173.123 32.3929 173.164 32.4447C173.657 33.0672 174.408 34.015 175.679 34.8284C177.042 35.701 179.046 36.4409 182.013 36.3268L182.073 37.9024C178.792 38.0287 176.469 37.2064 174.829 36.1566C173.328 35.1961 172.433 34.063 171.933 33.4303C171.891 33.377 171.851 33.3273 171.815 33.2815C171.543 32.9415 171.598 32.4453 171.938 32.1733Z" fill="#FEFFF5"/>
<path d="M158.851 24.1032C159.024 23.8723 160.302 22.5514 161.41 21.7168C161.911 22.5931 162.763 22.6296 163.154 22.5383C162.959 23.4381 163.141 23.9988 163.389 24.4944C162.294 25.5272 160.168 26.1244 159.164 26.3722C157.169 26.8645 158.616 24.4161 158.851 24.1032Z" fill="#FEFFF5"/>
<path fill-rule="evenodd" clip-rule="evenodd" d="M161.651 20.5488L162.095 21.3257C162.243 21.585 162.42 21.6921 162.571 21.7419C162.742 21.7987 162.904 21.7872 162.975 21.7706L164.19 21.4873L163.925 22.7059C163.776 23.3894 163.906 23.7656 164.094 24.1419L164.356 24.6661L163.93 25.0681C163.271 25.6895 162.352 26.1414 161.529 26.4624C160.689 26.7895 159.87 27.0103 159.353 27.1378C158.805 27.273 158.097 27.3146 157.641 26.7817C157.427 26.5313 157.356 26.2411 157.34 26.0066C157.324 25.774 157.358 25.5477 157.405 25.3554C157.497 24.9714 157.67 24.5868 157.82 24.2968C157.969 24.0081 158.126 23.7553 158.22 23.6302C158.35 23.4567 158.759 23.0269 159.232 22.5695C159.723 22.0955 160.345 21.5319 160.936 21.0871L161.651 20.5488ZM159.482 24.576C159.485 24.5727 159.505 24.548 159.552 24.4951L159.482 24.576ZM159.552 24.4951C159.599 24.4428 159.662 24.3751 159.739 24.2945L159.552 24.4951ZM159.739 24.2945C159.892 24.1335 160.095 23.9283 160.328 23.7035L159.739 24.2945ZM160.328 23.7035C160.626 23.4155 160.965 23.1028 161.306 22.813L160.328 23.7035ZM161.306 22.813C161.617 23.0743 161.959 23.2222 162.284 23.2965C162.288 23.6545 162.347 23.9666 162.436 24.2475C162.028 24.5262 161.511 24.7769 160.956 24.9932C160.208 25.2848 159.463 25.4865 158.975 25.6068C158.973 25.6072 158.972 25.6076 158.97 25.608C159.027 25.4265 159.118 25.2193 159.221 25.0214C159.281 24.9051 159.34 24.8012 159.39 24.7195C159.414 24.6787 159.436 24.6448 159.453 24.6188C159.461 24.6059 159.468 24.5956 159.474 24.5878M158.674 25.6477C158.674 25.6473 158.679 25.6476 158.687 25.6496C158.678 25.649 158.674 25.648 158.674 25.6477Z" fill="#FEFFF5"/>
<path d="M165.245 21.4345C165.395 21.8734 165.873 22.1074 166.311 21.9573C166.75 21.8071 166.984 21.3297 166.834 20.8908C166.684 20.452 166.207 20.2179 165.768 20.368C165.329 20.5182 165.095 20.9957 165.245 21.4345Z" fill="#FEFFF5"/>
<path fill-rule="evenodd" clip-rule="evenodd" d="M2.2268 33.7066C1.97364 33.3712 1.61029 33.0067 1.15121 32.6143C0.76719 32.2085 0.478384 31.8337 0.276665 31.49C0.0937677 31.1785 0 30.8306 0 30.4357C0.000119982 30.4338 0.00159896 30.4097 0.0189361 30.3572C0.0369236 30.3027 0.0676862 30.2305 0.116203 30.1387C0.213695 29.9542 0.368138 29.718 0.587886 29.4269L0.610684 29.3967L0.628363 29.3632C0.71316 29.2027 0.844334 28.9747 1.02485 28.6757C1.21528 28.3604 1.35615 28.0573 1.41942 27.7747C1.6187 27.102 1.70719 26.1026 1.70719 24.8136C1.70719 19.5318 1.84309 15.136 2.11389 11.6231C2.16459 11.3104 2.20934 10.5706 2.25313 9.45167C2.29744 8.31951 2.45211 7.32627 2.71142 6.46737C2.83658 6.05283 2.98466 5.79107 3.13029 5.63874C3.26346 5.49945 3.39898 5.44485 3.55839 5.44485C3.79472 5.44485 4.11341 5.54451 4.52769 5.81894L4.549 5.83306L4.57172 5.84479C4.96642 6.04853 5.20911 6.24481 5.34558 6.41864C5.3556 6.5869 5.38518 6.75597 5.45423 6.90298C5.50207 7.00485 5.57686 7.1132 5.69317 7.19574C5.81391 7.28144 5.95088 7.31893 6.08504 7.31893C6.17363 7.31893 6.24389 7.29223 6.2532 7.28869C6.27543 7.28058 6.2939 7.27214 6.30499 7.2669C6.32821 7.25591 6.35149 7.24339 6.37117 7.23246C6.41209 7.20973 6.4646 7.17865 6.52595 7.14132C6.64996 7.06588 6.827 6.9546 7.05539 6.80871C7.513 6.5164 8.18637 6.07905 9.07449 5.4972L9.08102 5.49276C10.769 4.34589 12.7684 3.76465 15.099 3.76465C16.9101 3.76465 18.2428 4.13153 19.1564 4.80396C20.056 5.46614 20.608 6.46803 20.7778 7.87411C21.2324 11.6603 21.4573 14.5242 21.4573 16.4772C21.4573 17.5869 21.4121 19.1737 21.3211 21.2394C21.23 23.395 21.1841 25.0187 21.1841 26.1061C21.1841 27.9359 20.811 29.5626 20.0751 30.9964L20.0724 31.0018C19.7436 31.6629 19.308 32.1388 18.7709 32.453C18.2316 32.7685 17.5608 32.9379 16.738 32.9379C16.4744 32.9379 16.1958 32.8619 15.8968 32.6873C15.5986 32.4849 15.2519 32.2185 14.8557 31.8851C14.4378 31.5337 14.0601 31.2427 13.7237 31.0153L13.4109 30.8039L13.1539 31.047L8.07762 32.4376L8.07041 32.4397C7.35916 32.6468 6.73792 33.1279 6.19745 33.8229C5.85888 34.2222 5.53562 34.5034 5.23088 34.6837L5.21867 34.6909L5.20691 34.6988C5.00595 34.8347 4.62081 34.9412 3.96812 34.9412C3.57381 34.9412 3.26934 34.8671 3.03544 34.7417C2.88395 34.6548 2.73265 34.5179 2.5865 34.3136C2.40782 34.0175 2.30459 33.8409 2.26727 33.7703L2.24959 33.7368L2.2268 33.7066ZM6.16076 14.7765L7.36231 14.8798H7.38251C7.66001 14.8798 8.04045 14.7973 8.48718 14.6672C8.94657 14.5334 9.52113 14.3354 10.2077 14.0756C11.3153 13.6826 11.9312 13.4845 12.1136 13.4499L12.1241 13.4479L12.1344 13.4455C12.4673 13.3668 13.0334 13.283 13.8508 13.1971L13.8629 13.1958L13.8749 13.1939C14.2918 13.1281 14.6384 13.0608 14.9094 12.9908C15.1586 12.9265 15.4029 12.8462 15.571 12.7288C15.9505 12.4713 16.2525 12.1101 16.2525 11.6305C16.2525 10.933 16.2296 10.336 16.1823 9.84256C16.1364 9.32241 16.09 8.90273 16.0424 8.58755L16.0161 8.4136L15.8822 8.29953C15.5729 8.03614 15.1537 7.86742 14.6702 7.76183C14.1822 7.65526 13.594 7.60559 12.9138 7.60559C10.4517 7.60559 8.21764 8.30208 6.2253 9.69371L6.01626 9.83971L6.09319 12.2421L6.09463 12.2571C6.13792 12.7077 6.16076 13.4002 6.16076 14.3446V14.7765ZM6.60762 27.2586L6.68605 27.4442L7.29643 27.6752H7.38251C7.6514 27.6752 8.13294 27.5848 8.76945 27.4368C9.42697 27.284 10.3042 27.056 11.3987 26.754C12.5159 26.4519 13.3832 26.202 13.9968 26.0048C14.3029 25.9064 14.5528 25.8189 14.7416 25.7428C14.8358 25.7048 14.9212 25.6671 14.9937 25.6296C15.0576 25.5966 15.145 25.5472 15.2176 25.4785L15.2367 25.4605L15.2536 25.4405C15.353 25.3229 15.4187 25.1773 15.4661 25.0426C15.5159 24.9011 15.5581 24.7349 15.5948 24.5496C15.6679 24.1809 15.7263 23.7002 15.7723 23.1146C15.9091 21.948 15.9794 21.0041 15.9794 20.29C15.9794 19.5997 15.8994 19.0142 15.6945 18.5848C15.589 18.3638 15.4423 18.1671 15.2405 18.0261C15.0346 17.8822 14.7991 17.8161 14.5527 17.8161C14.2343 17.8161 13.7179 17.9187 13.0529 18.0893C12.3702 18.2645 11.4799 18.5256 10.385 18.871C9.31192 19.1951 8.45334 19.4784 7.81343 19.7206C7.49337 19.8418 7.22238 19.9548 7.00394 20.0596C6.7923 20.1611 6.604 20.2671 6.46779 20.3799L6.36738 20.463L6.32406 20.586C6.2306 20.8513 6.16076 21.1094 6.16076 21.3239C6.16076 22.1145 6.20704 23.2249 6.2983 24.6498C6.34401 25.3635 6.39008 25.932 6.43679 26.352C6.46012 26.5616 6.48416 26.7395 6.50933 26.8824C6.53257 27.0143 6.56244 27.1517 6.60762 27.2586ZM35.005 33.7066C34.7518 33.3712 34.3885 33.0067 33.9294 32.6143C33.5454 32.2085 33.2566 31.8337 33.0549 31.49C32.872 31.1785 32.7782 30.8306 32.7782 30.4357C32.7783 30.4338 32.7798 30.4097 32.7971 30.3572C32.8151 30.3027 32.8459 30.2305 32.8944 30.1387C32.9919 29.9542 33.1463 29.718 33.3661 29.4269L33.3889 29.3967L33.4066 29.3632C33.4914 29.2027 33.6225 28.9747 33.8031 28.6757C33.9935 28.3604 34.1343 28.0574 34.1976 27.7748C34.3969 27.1021 34.4854 26.1026 34.4854 24.8136C34.4854 19.5318 34.6213 15.136 34.8921 11.6231C34.9428 11.3104 34.9875 10.5706 35.0313 9.45167C35.0756 8.31952 35.2303 7.32627 35.4896 6.46737C35.6148 6.05283 35.7629 5.79107 35.9085 5.63874C36.0417 5.49945 36.1772 5.44485 36.3366 5.44485C36.5729 5.44485 36.8916 5.54451 37.3059 5.81894L37.3272 5.83306L37.3499 5.84479C37.7446 6.04853 37.9873 6.24481 38.1238 6.41864C38.1338 6.5869 38.1634 6.75597 38.2324 6.90298C38.2803 7.00485 38.3551 7.11319 38.4714 7.19574C38.5921 7.28144 38.7291 7.31893 38.8632 7.31893C38.9518 7.31893 39.0221 7.29223 39.0314 7.28869C39.0536 7.28058 39.0721 7.27214 39.0832 7.2669C39.1064 7.25591 39.1297 7.24339 39.1494 7.23246C39.1903 7.20973 39.2428 7.17865 39.3042 7.14132C39.4282 7.06588 39.6052 6.95461 39.8336 6.80871C40.2912 6.5164 40.9646 6.07905 41.8527 5.4972L41.8592 5.49276C43.5472 4.34589 45.5466 3.76465 47.8773 3.76465C49.6883 3.76465 51.021 4.13153 51.9346 4.80396C52.8342 5.46609 53.3861 6.46788 53.5559 7.87379C54.0106 11.6601 54.2355 14.5242 54.2355 16.4772C54.2355 17.5869 54.1903 19.1737 54.0993 21.2394C54.0082 23.395 53.9623 25.0187 53.9623 26.1061C53.9623 27.9359 53.5892 29.5626 52.8533 30.9964L52.8506 31.0018C52.5218 31.6629 52.0862 32.1388 51.5491 32.453C51.0098 32.7685 50.339 32.9379 49.5162 32.9379C49.2526 32.9379 48.9741 32.8619 48.675 32.6873C48.3768 32.4849 48.0301 32.2185 47.6339 31.8851C47.216 31.5337 46.8383 31.2427 46.5019 31.0153L46.1891 30.8039L45.9321 31.047L40.8558 32.4376L40.8486 32.4397C40.1374 32.6468 39.5161 33.1279 38.9757 33.8229C38.6371 34.2222 38.3138 34.5034 38.0091 34.6837L37.9969 34.6909L37.9851 34.6988C37.7841 34.8347 37.399 34.9412 36.7463 34.9412C36.352 34.9412 36.0476 34.8671 35.8137 34.7418C35.6622 34.6548 35.5109 34.5179 35.3647 34.3136C35.186 34.0175 35.0828 33.8409 35.0455 33.7703L35.0278 33.7368L35.005 33.7066ZM38.939 14.7765L40.1405 14.8798H40.1607C40.4382 14.8798 40.8187 14.7973 41.2654 14.6672C41.7248 14.5334 42.2993 14.3355 42.9859 14.0757C44.0935 13.6826 44.7094 13.4845 44.8918 13.4499L44.9023 13.4479L44.9126 13.4455C45.2455 13.3668 45.8116 13.283 46.629 13.1971L46.6411 13.1958L46.6531 13.1939C47.07 13.1281 47.4166 13.0608 47.6876 12.9908C47.9369 12.9265 48.1813 12.8461 48.3494 12.7286C48.7288 12.4711 49.0307 12.1101 49.0307 11.6305C49.0307 10.9329 49.0078 10.3358 48.9604 9.84233C48.9146 9.32228 48.8682 8.90268 48.8206 8.58755L48.7943 8.4136L48.6604 8.29953C48.3511 8.03614 47.9319 7.86742 47.4484 7.76183C46.9604 7.65526 46.3722 7.60559 45.692 7.60559C43.2299 7.60559 40.9958 8.30208 39.0035 9.69371L38.7945 9.83971L38.8714 12.2421L38.8728 12.2571C38.9161 12.7077 38.939 13.4002 38.939 14.3446V14.7765ZM39.3858 27.2586L39.4643 27.4442L40.0746 27.6752H40.1607C40.4296 27.6752 40.9111 27.5848 41.5477 27.4368C42.2052 27.284 43.0824 27.056 44.1769 26.754C45.2942 26.4519 46.1615 26.202 46.775 26.0048C47.0811 25.9064 47.331 25.8189 47.5198 25.7428C47.614 25.7048 47.6994 25.6671 47.7719 25.6296C47.8358 25.5966 47.9232 25.5472 47.9958 25.4785L48.0149 25.4605L48.0318 25.4405C48.1312 25.3229 48.1969 25.1773 48.2443 25.0426C48.2941 24.9011 48.3363 24.7349 48.373 24.5496C48.4461 24.1809 48.5045 23.7002 48.5506 23.1146C48.6873 21.948 48.7576 21.0041 48.7576 20.29C48.7576 19.5997 48.6776 19.0142 48.4727 18.5848C48.3672 18.3638 48.2205 18.1671 48.0187 18.0261C47.8128 17.8822 47.5773 17.8161 47.331 17.8161C47.0125 17.8161 46.4961 17.9187 45.8311 18.0893C45.1484 18.2645 44.2581 18.5256 43.1632 18.871C42.0901 19.1951 41.2315 19.4784 40.5916 19.7206C40.2716 19.8418 40.0006 19.9548 39.7822 20.0596C39.5705 20.1611 39.3822 20.2671 39.246 20.3799L39.1456 20.463L39.1023 20.586C39.0088 20.8513 38.939 21.1094 38.939 21.3239C38.939 22.1145 38.9852 23.2249 39.0765 24.6498C39.1222 25.3635 39.1683 25.932 39.215 26.352C39.2383 26.5616 39.2624 26.7395 39.2875 26.8824C39.3108 27.0143 39.3406 27.1517 39.3858 27.2586Z" fill="#FEFFF5"/>
</svg>
